<svg width="32" height="32" viewBox="0 0 32 32" fill="none" xmlns="http://www.w3.org/2000/svg">
    <path d="M22.5905 8.65457L13.0457 12.7444C12.9076 12.8036 12.8034 12.9107 12.7428 13.0473L8.6516 22.5879C8.56426 22.8048 8.61074 23.0584 8.77839 23.2232C8.88546 23.3345 9.03762 23.3937 9.18555 23.3937C9.26021 23.3937 9.33911 23.3768 9.41096 23.3458L18.9557 19.256C19.0938 19.1968 19.2009 19.0897 19.2615 18.9531L23.3498 9.41255C23.44 9.197 23.3935 8.94337 23.2259 8.77572C23.0611 8.61089 22.8046 8.56299 22.5905 8.65457ZM10.2858 21.7186L13.4698 14.2856L17.7188 18.5346L10.2858 21.7186ZM18.5345 17.7175L14.2826 13.4685L21.717 10.2818L18.5345 17.7175Z" fill="#005395"/>
    <path d="M16 0C7.17795 0 0 7.17657 0 15.9986C0 24.8193 7.17936 31.9986 16 31.9986C24.8249 31.9986 32 24.8179 32 15.9986C32.0014 7.17657 24.8249 0 16 0ZM16 30.8462C7.81333 30.8462 1.1552 24.1853 1.1552 16C1.1552 7.81474 7.81474 1.15671 16 1.15671C24.1853 1.15671 30.8448 7.81614 30.8448 16C30.8462 24.1853 24.1867 30.8462 16 30.8462Z" fill="#005395"/>
    <path d="M15.9999 4.28138C16.4451 4.28138 16.8086 3.91792 16.8086 3.46991C16.8086 3.02191 16.4451 2.65845 15.9999 2.65845C15.5547 2.65845 15.1913 3.02191 15.1913 3.46991C15.1913 3.91792 15.5547 4.28138 15.9999 4.28138ZM15.9999 3.12613C16.1929 3.12613 16.3465 3.27972 16.3465 3.46991C16.3465 3.8517 15.6561 3.8517 15.6561 3.46991C15.6561 3.27972 15.8111 3.12613 15.9999 3.12613Z" fill="#005395"/>
    <path d="M15.9999 27.7214C15.5547 27.7214 15.1913 28.0849 15.1913 28.5287C15.1913 28.9767 15.5547 29.3402 15.9999 29.3402C16.4451 29.3402 16.8086 28.9767 16.8086 28.5287C16.81 28.0849 16.4465 27.7214 15.9999 27.7214ZM15.6561 28.5287C15.6561 28.3385 15.8097 28.1877 15.9999 28.1877C16.1929 28.1877 16.3465 28.3385 16.3465 28.5287C16.3465 28.9147 15.6561 28.9147 15.6561 28.5287Z" fill="#005395"/>
    <path d="M28.5343 15.1899C28.0891 15.1899 27.7228 15.552 27.7228 15.9986C27.7228 16.448 28.0891 16.8115 28.5343 16.8115C28.9795 16.8115 29.3429 16.448 29.3429 15.9986C29.3429 15.552 28.9795 15.1899 28.5343 15.1899ZM28.1905 15.9999C28.1905 15.8069 28.3385 15.6576 28.5343 15.6576C28.7245 15.6576 28.8752 15.8098 28.8752 15.9999C28.8752 16.386 28.1905 16.386 28.1905 15.9999Z" fill="#005395"/>
    <path d="M3.47273 15.1899C3.02755 15.1899 2.66406 15.552 2.66406 15.9986C2.66406 16.448 3.02755 16.8115 3.47273 16.8115C3.91792 16.8115 4.28136 16.448 4.28136 15.9986C4.28136 15.552 3.91792 15.1899 3.47273 15.1899ZM3.12616 15.9999C3.12616 15.8098 3.27973 15.6576 3.47273 15.6576C3.66293 15.6576 3.81647 15.8098 3.81647 15.9999C3.81647 16.3789 3.12616 16.3789 3.12616 15.9999Z" fill="#005395"/>
</svg>
